<svg xmlns="http://www.w3.org/2000/svg" viewBox="0 0 383.42 383.02"><defs><style>.cls-1{fill:#aaa;}</style></defs><g id="Layer_2" data-name="Layer 2"><g id="Glyph"><path class="cls-1" d="M0,82.84C2,78.41,5.58,76,10.05,74.1q88.08-36.36,176-73c4.45-1.85,8.37-1.17,12.58.58Q260.95,27.6,323.27,53.41,348.8,64,374.35,74.59c7,2.92,9,5.89,9,13.39,0,6.36,0,12.72,0,19.08,0,8-4.57,12.46-12.61,12.46q-179,0-357.9.06c-6.35,0-10.17-3-12.84-8.29Zm191.7,3q33.11,0,66.2,0c5.25,0,9.26-2,11.43-6.84,3.39-7.54-2.23-15.6-10.92-15.62-24.56-.06-49.12,0-73.68,0q-29.73,0-59.47,0c-5.1,0-9,2-11.16,6.66-3.57,7.63,2.1,15.77,11,15.79Q158.42,85.9,191.7,85.84Z"/><path class="cls-1" d="M0,344.84c2.5-2.82,4.7-6,7.63-8.31a12.62,12.62,0,0,1,7.31-2.08q177.45-.15,354.89-.08c6.68,0,13.26,6.14,13.45,13,.23,8.23.13,16.47,0,24.7-.07,5.56-3.69,8.64-8.19,11H8.24A17.24,17.24,0,0,1,0,374.79Z"/><ellipse class="cls-1" cx="64.39" cy="199.99" rx="39.43" ry="81.79"/><path class="cls-1" d="M291.18,142.08h55.57v115.7H291.18Z"/><path class="cls-1" d="M225.33,203.26c.09,8.16-4.44,13.27-10.7,13.56s-11.17-4.35-11.72-11.07c-.57-7-5.48-11.7-11.83-11.35a11.38,11.38,0,0,0-10.62,11c-.09,6.39,4.79,11.11,11.79,11.41,16.12.69,29.33,11.57,32.35,26.65,3.19,15.94-4.32,30.81-19.41,37.72-2.58,1.18-2.34,2.83-2.26,4.74.2,5.15-1.36,9.37-6.12,11.88a10.93,10.93,0,0,1-16.2-9.74c.07-4.41-1.44-6.28-5.2-8.32-11-6-16.77-15.68-17.37-28.22-.32-6.73,4.25-11.85,10.49-12.24s11.35,4.32,11.91,11.25c.51,6.17,4.49,10.54,10.15,11.13a11.33,11.33,0,0,0,12-8.62c1.82-6.93-3.52-13.45-11.28-13.79-13-.59-23-6.4-29.24-17.78a33.21,33.21,0,0,1,14.27-45.7c3.35-1.66,4.29-3.41,4.22-7-.15-8.56,7.65-14.12,15.19-11.07,4.62,1.87,7.33,5.51,7.05,10.43-.25,4.23,1.34,6.08,5,8C219,182.22,224.53,192.14,225.33,203.26Z"/><path class="cls-1" d="M21.66,314c0-8.34-.36-16.56.14-24.72.3-4.9,5.1-8.72,10.21-8.75q32.39-.18,64.76,0c5.12,0,9.91,3.83,10.21,8.74.5,8.17.13,16.39.13,24.73Z"/><path class="cls-1" d="M276.23,314c0-8.34-.36-16.56.14-24.72.3-4.9,5.1-8.72,10.21-8.75q32.39-.18,64.76,0c5.12,0,9.91,3.84,10.21,8.75.5,8.16.13,16.38.13,24.72Z"/></g></g></svg>