<svg xmlns="http://www.w3.org/2000/svg" xmlns:xlink="http://www.w3.org/1999/xlink" width="15.694" height="15.694" viewBox="0 0 15.694 15.694">
  <g id="Group_779" data-name="Group 779" transform="translate(0)">
    <g id="Group_780" data-name="Group 780" transform="translate(0)">
      <path id="Path_27" data-name="Path 27" d="M2327.869,159.76a7.824,7.824,0,1,1,3.055-.617A7.8,7.8,0,0,1,2327.869,159.76Zm0-15.326a7.479,7.479,0,1,0,7.479,7.479A7.487,7.487,0,0,0,2327.869,144.434Z" transform="translate(-2320.022 -144.066)" fill="#0abab4"/>
    </g>
    <circle id="Ellipse_5" data-name="Ellipse 5" cx="7.163" cy="7.163" r="7.163" transform="translate(0.684 0.684)" fill="#0abab4"/>
    <path id="Path_28" data-name="Path 28" d="M2549.986,337.065a2.264,2.264,0,0,1-.041.409,2.861,2.861,0,0,1-.123.45,1.989,1.989,0,0,1-.222.438,2.4,2.4,0,0,1-.961.859,3.186,3.186,0,0,1-1.468.315,3.083,3.083,0,0,1-1.94-.546,2.03,2.03,0,0,1-.7-1.709v-2.564h-.794l-.088-1.291h.876v-.421a.565.565,0,0,0-.11-.365.448.448,0,0,0-.368-.137h-.38l-.094-1.308h.467a2.66,2.66,0,0,1,1.627.424,1.634,1.634,0,0,1,.557,1.387v.421h4.165l.093,1.291h-4.258v2.553a.869.869,0,0,0,.251.7,1.041,1.041,0,0,0,.7.213,1.247,1.247,0,0,0,.525-.1,1.187,1.187,0,0,0,.379-.272.859.859,0,0,0,.146-.193.978.978,0,0,0,.088-.213.79.79,0,0,0,.029-.207.377.377,0,0,0-.146-.327.853.853,0,0,0-.485-.105c-.125,0-.252,0-.382.012s-.262.018-.394.029l.1-1.3.441-.023q.219-.012.47-.012a2.476,2.476,0,0,1,1.53.4A1.419,1.419,0,0,1,2549.986,337.065Z" transform="translate(-2539.18 -327.518)" fill="#fff"/>
  </g>
</svg>
