<svg id="footer-iTechLabs" xmlns="http://www.w3.org/2000/svg" width="26.391" height="25.216" viewBox="0 0 26.391 25.216">
  <path id="Path_109" d="M14.174,28.125c-.162-.162-.244.162-.487,0a.391.391,0,0,1-.162-.487c0-.568-.162-1.056-.162-1.624,0-.081,0-.162-.081-.162h-.487c-.65,0-.65,0-.568.65a12.345,12.345,0,0,0,3,6.984c.325.406.731.812,1.056,1.218.162.162.325.244.487-.081.081.244.162.406.487.325-.162.162-.162.406,0,.487-.162.081-.406.081-.406.244a.08.08,0,0,1-.081.081c-.162-.162-.244-.081-.487,0a.34.34,0,0,0-.244-.487c.325-.162.244-.244.081-.406a13.746,13.746,0,0,1-3.817-6.334,11.438,11.438,0,0,1,2.111-10.15,12.718,12.718,0,0,1,9.176-5.2,12.908,12.908,0,0,1,12.83,6.253,12.454,12.454,0,0,1,1.868,6.09c0,.244-.081.244-.244.244H36.342c-.244,0-.325-.081-.406-.325a13.022,13.022,0,0,0-.812-3.411,9.908,9.908,0,0,0-3.167-3.9,10.964,10.964,0,0,0-2.68-1.543c-.162-.081-.244-.162-.162-.406-.162,0-.487.081-.487-.244-.162.162-.244.406-.487.244a.481.481,0,0,1-.081.568c.162.081.406.162.244.406.244-.081.406-.244.568.081,0-.487.162-.406.406-.244a11.9,11.9,0,0,1,4.629,3.654,7.749,7.749,0,0,1,1.543,3.979c.081.325.081.65.162.974q.122.244-.244.244c-.65,0-.65,0-.65-.568a9.191,9.191,0,0,0-1.543-4.3,8.519,8.519,0,0,0-4.791-3.248,11.151,11.151,0,0,0-2.274-.406l.244-.244c-.65,0-.812-.325-.731-.893-.244.081-.406.406-.65.325-.162,0-.406-.244-.65-.406.081.568-.081.974-.731.974a.742.742,0,0,1,.406.974c0,.081-.081.162-.162.244.568-.244.974-.081,1.056.487.244-.162.244-.487.406-.65s.487.081.731,0c-.081-.162-.081-.406-.162-.568a3.93,3.93,0,0,1,1.949.244,9.62,9.62,0,0,1,3.329,1.543,7.27,7.27,0,0,1,3.086,5.035c.081.406.081.812.162,1.218.081.162-.081.244-.244.244H32.932c-.162,0-.244-.081-.325-.244a6.683,6.683,0,0,0-2.274-4.629,2.153,2.153,0,0,0-.487-.406c-.244-.162-.406-.244.081-.487-.487-.081-.731-.325-.568-.893-.406.325-.731.406-.974-.081a.251.251,0,0,0-.081.162c0,.244-.081.406-.325.406H27.9c-.081,0-.162,0-.162.081a.175.175,0,0,0,.162.162.391.391,0,0,1,.162.487.08.08,0,0,1-.081.081c-.081.081-.081.162-.162.244a.559.559,0,0,1,.812.487c.081,0,.162-.162.244-.244a.361.361,0,0,1,.487-.162c.244.081.325.081.244-.244a6.539,6.539,0,0,1,2.761,3.817,6.269,6.269,0,0,1,.162,1.218.215.215,0,0,1-.244.244H30.333c-.162,0-.244,0-.244-.162a4.13,4.13,0,0,0-2.111-3.167c-.244-.162-.568-.406-.487-.812-.244.081-.406.162-.568-.081-.081-.081-.162,0-.162.081,0,.162-.244.325-.406.325h-.081c.162.244.244.487-.081.731.244.081.568.081.487.487.244-.162.406-.325.65-.244.162.081.081-.162.162-.244a4.237,4.237,0,0,1,2.192,2.923c.081.244-.081.325-.244.325H16.366c-.325,0-.406.081-.406.406A9.5,9.5,0,0,0,17.5,30.8a1.768,1.768,0,0,0,.65.406c.244.162-.081.325.162.406-.081.081-.244.081-.244.244-.081,0-.162-.162-.325-.081,0-.162-.244-.244-.081-.406.081-.081,0-.162-.081-.162a8.448,8.448,0,0,1-1.705-4.872.215.215,0,0,0-.244-.244H13.93c-.162,0-.244,0-.162.162.081.406.081.731.162,1.218.081.162.081.325.325.244.081,0,.244.325.162.406-.162-.406-.244-.162-.244,0Z" transform="translate(-11.901 -13.113)" fill="#a2aabd"/>
  <path id="Path_110" d="M39.074,33.644a1.653,1.653,0,0,1,1.218-.487,1.234,1.234,0,0,1,1.218,1.137,19.749,19.749,0,0,1,0,2.192.455.455,0,0,1-.406.487h-.081a.468.468,0,0,1-.487-.487V34.618a.653.653,0,0,0-.487-.731.727.727,0,0,0-.812.65h0a.3.3,0,0,1-.081.244c-.081.568,0,1.056-.081,1.624a.491.491,0,0,1-.244.487.511.511,0,0,1-.65-.244v-.081c0-.081-.081-.162-.081-.244V32.345c0-.406.162-.65.406-.65a.462.462,0,0,1,.568.325v1.624Z" transform="translate(-16.825 -16.602)" fill="#a2aabd"/>
  <path id="Path_111" d="M29.895,35.636H28.92c-.162,0-.162.081-.162.162a.839.839,0,0,0,.974.731.422.422,0,0,0,.325-.162,2.153,2.153,0,0,0,.487-.406.5.5,0,0,1,.568-.081.383.383,0,0,1,.081.487,1.43,1.43,0,0,1-1.056.731,1.789,1.789,0,0,1-2.193-.974,2.174,2.174,0,0,1,.081-2.111,1.7,1.7,0,0,1,1.949-.731,1.729,1.729,0,0,1,1.38,1.543.533.533,0,0,1-.406.65h-.081A1,1,0,0,1,29.895,35.636Zm-.325-.568h.65c.081,0,.162,0,.162-.162a.781.781,0,0,0-.65-.731.72.72,0,0,0-.812.487c-.162.406-.162.406.244.406Z" transform="translate(-14.873 -16.889)" fill="#a2aabd"/>
  <path id="Path_112" d="M25.417,34.842v1.624c0,.406-.162.65-.487.65s-.487-.162-.487-.65V33.137c0-.244-.081-.244-.244-.244h-.812a.455.455,0,0,1-.487-.406v-.081c0-.244.162-.406.487-.406h3.329a.455.455,0,0,1,.487.406v.081a.515.515,0,0,1-.406.487h-.974a.215.215,0,0,0-.244.244A5.26,5.26,0,0,0,25.417,34.842Z" transform="translate(-13.968 -16.663)" fill="#a2aabd"/>
  <path id="Path_113" d="M34.866,37.417A1.729,1.729,0,0,1,33,35.874v-.325A1.749,1.749,0,0,1,34.541,33.6h.325a2.454,2.454,0,0,1,1.3.406,2.153,2.153,0,0,1,.406.487.391.391,0,0,1-.162.487h0a.5.5,0,0,1-.568-.081c-.081-.081-.162-.162-.162-.244a1.3,1.3,0,0,0-.893-.406.881.881,0,0,0-.65.65,2.318,2.318,0,0,0,0,1.056.881.881,0,0,0,.65.65.816.816,0,0,0,.893-.406c.081-.081.081-.162.162-.244.162-.162.244-.244.487-.162a.362.362,0,0,1,.244.487h0a.991.991,0,0,1-.65.731A1.456,1.456,0,0,1,34.866,37.417Z" transform="translate(-15.865 -16.964)" fill="#a2aabd"/>
  <path id="Path_114" d="M29.831,40.48c.244-.162.487-.406.731-.406a1.336,1.336,0,0,1,1.462.974v.162a1.4,1.4,0,0,1-.081.812,1.3,1.3,0,0,1-1.462,1.056,1.318,1.318,0,0,1-.731-.406c.081.244.081.406-.081.487s-.406.081-.487-.081a.3.3,0,0,1-.081-.244V39.425c0-.162.081-.325.244-.325h.081c.244,0,.406.081.406.325A4.574,4.574,0,0,1,29.831,40.48Zm1.462,1.137c0-.568-.244-.974-.65-.974s-.731.406-.731.974.244.974.65.974C31.049,42.592,31.293,42.186,31.293,41.617Z" transform="translate(-15.134 -17.998)" fill="#a2aabd"/>
  <path id="Path_115" d="M27.757,41.831a4.63,4.63,0,0,0,.081,1.056.326.326,0,0,1-.162.487.383.383,0,0,1-.487-.081v-.081c-.162-.244-.244-.162-.406-.081a1,1,0,0,1-1.056.162A.728.728,0,0,1,25,42.561a.669.669,0,0,1,.568-.812l1.218-.244c.081-.081.244,0,.244-.162a.447.447,0,0,0-.244-.406.932.932,0,0,0-.974.325c-.162.162-.244.244-.487.162-.244-.162-.162-.325-.081-.568a1.009,1.009,0,0,1,.65-.487,2.369,2.369,0,0,1,1.3-.081.863.863,0,0,1,.731.812A1.335,1.335,0,0,0,27.757,41.831Zm-.812.081a2.919,2.919,0,0,1-.893.162c-.162,0-.325.244-.325.406h0c.081.244.162.244.406.325.568.162.812-.244.812-.893Z" transform="translate(-14.359 -18.211)" fill="#a2aabd"/>
  <path id="Path_116" d="M34.5,43.411a2.371,2.371,0,0,1-.731-.162,2.153,2.153,0,0,1-.487-.406c-.081-.162-.081-.406.081-.487s.325-.081.406.081v.081a.825.825,0,0,0,.812.406c.162-.081.325-.081.406-.244s-.162-.244-.244-.325c-.244-.081-.568-.162-.812-.244A.92.92,0,0,1,33.2,41.3a1.043,1.043,0,0,1,.812-.812,2.089,2.089,0,0,1,1.218.081c.081.081.162.081.244.162a.549.549,0,0,1,.162.65c-.162.162-.406.162-.65-.162a.655.655,0,0,0-.731-.244c-.081.081-.244.081-.244.244s.081.162.162.244a1.911,1.911,0,0,0,.65.162,1.154,1.154,0,0,1,.487.162.749.749,0,0,1,.325,1.056.634.634,0,0,1-.325.325C35.149,43.411,34.986,43.411,34.5,43.411Z" transform="translate(-15.904 -18.248)" fill="#a2aabd"/>
  <path id="Path_117" d="M20.962,41.011V39.55c0-.406.162-.65.406-.65s.406.162.406.65v2.517c0,.244.081.244.244.244H23.4c.244,0,.406.081.406.325a.54.54,0,0,1-.325.406H21.206a.455.455,0,0,1-.406-.487A4.746,4.746,0,0,0,20.962,41.011Z" transform="translate(-13.573 -17.96)" fill="#a2aabd"/>
  <path id="Path_118" d="M21.793,35.43v1.38c0,.325-.162.487-.406.487a.455.455,0,0,1-.487-.406h0v-2.68a.732.732,0,0,1,.081-.406.611.611,0,0,1,.568-.406.515.515,0,0,1,.406.487A5.26,5.26,0,0,0,21.793,35.43Z" transform="translate(-13.592 -16.926)" fill="#a2aabd"/>
  <path id="Path_119" d="M21.774,32.384a.431.431,0,0,1-.487.487.455.455,0,0,1-.487-.406v-.081a.524.524,0,0,1,.487-.487c.325-.081.487.162.487.487Z" transform="translate(-13.573 -16.641)" fill="#a2aabd"/>
  <path id="Path_120" d="M14.7,31.6Z" transform="translate(-12.427 -16.588)" fill="#2f3392"/>
</svg>
