<svg xmlns="http://www.w3.org/2000/svg" viewBox="640 440 25 25" width="24" height="24" fill="currentColor">
  <path d="M649.96,442.948s5.146-2.112,6.932-2.856c.684-.3,3-1.249,3-1.249s1.071-.417.982.595c-.03.417-.267,1.875-.506,3.451-.357,2.231-.743,4.67-.743,4.67s-.06.685-.565.8a2.444,2.444,0,0,1-1.487-.536c-.119-.089-2.231-1.428-3-2.083a.563.563,0,0,1,.029-.952c1.071-.982,2.351-2.2,3.124-2.975.357-.357.714-1.19-.773-.179-2.112,1.458-4.195,2.827-4.195,2.827a1.748,1.748,0,0,1-1.368.029c-.893-.267-1.934-.624-1.934-.624s-.714-.446.506-.922Z"></path>
</svg>
